G04 MADE WITH FRITZING*
G04 WWW.FRITZING.ORG*
G04 DOUBLE SIDED*
G04 HOLES PLATED*
G04 CONTOUR ON CENTER OF CONTOUR VECTOR*
%ASAXBY*%
%FSLAX23Y23*%
%MOIN*%
%OFA0B0*%
%SFA1.0B1.0*%
%ADD10C,0.080000*%
%ADD11C,0.084000*%
%ADD12C,0.088000*%
%ADD13R,0.079972X0.080000*%
%ADD14R,0.084000X0.084000*%
%ADD15R,0.088000X0.088000*%
%LNMASK0*%
G90*
G70*
G54D10*
X496Y1858D03*
X496Y1758D03*
X496Y1658D03*
X496Y1558D03*
X496Y1458D03*
X496Y1358D03*
X496Y1258D03*
X496Y1158D03*
X496Y1058D03*
X496Y958D03*
X496Y858D03*
X496Y758D03*
X496Y658D03*
X496Y558D03*
X496Y458D03*
X1096Y1858D03*
X1096Y1758D03*
X1096Y1658D03*
X1096Y1558D03*
X1096Y1458D03*
X1096Y1358D03*
X1096Y1258D03*
X1096Y1158D03*
X1096Y1058D03*
X1096Y958D03*
X1096Y858D03*
X1096Y758D03*
X1096Y658D03*
X1096Y558D03*
X1096Y458D03*
G54D11*
X596Y158D03*
X696Y158D03*
X796Y158D03*
X896Y158D03*
X996Y158D03*
X1096Y158D03*
X796Y1458D03*
X796Y1358D03*
X796Y1258D03*
X796Y1158D03*
X796Y1058D03*
X796Y958D03*
G54D12*
X196Y758D03*
X196Y658D03*
X196Y558D03*
X196Y1858D03*
X196Y1758D03*
X196Y1558D03*
X196Y1458D03*
X196Y1358D03*
G54D13*
X496Y1858D03*
G54D14*
X796Y1458D03*
G54D15*
X196Y758D03*
X196Y1858D03*
X196Y1558D03*
G04 End of Mask0*
M02*