; NON-PLATED HOLES START AT T1
; THROUGH (PLATED) HOLES START AT T100
M48
INCH
T100C0.036000
T101C0.040000
T102C0.038000
%
T100
X010962Y018580
X010962Y012580
X010962Y005580
X004962Y014580
X010962Y016580
X004962Y008580
X010962Y009580
X004962Y015580
X010962Y004580
X004962Y006580
X010962Y010580
X004962Y012580
X004962Y005580
X004962Y016580
X010962Y014580
X004962Y018580
X010962Y015580
X010962Y006580
X004962Y004580
X004962Y009580
X004962Y010580
X010962Y008580
X010962Y007580
X010962Y011580
X010962Y013580
X004962Y017580
X004962Y007580
X004962Y011580
X010962Y017580
X004962Y013580
T101
X007962Y012580
X008962Y001580
X007962Y009580
X007962Y010580
X007962Y014580
X006962Y001580
X007962Y011580
X009962Y001580
X007962Y013580
X005962Y001580
X010962Y001580
X007962Y001580
T102
X001962Y018580
X001962Y005580
X001962Y014580
X001962Y006580
X001962Y015580
X001962Y007580
X001962Y013580
X001962Y017580
T00
M30
