G04 MADE WITH FRITZING*
G04 WWW.FRITZING.ORG*
G04 DOUBLE SIDED*
G04 HOLES PLATED*
G04 CONTOUR ON CENTER OF CONTOUR VECTOR*
%ASAXBY*%
%FSLAX23Y23*%
%MOIN*%
%OFA0B0*%
%SFA1.0B1.0*%
%ADD10C,0.070000*%
%ADD11C,0.074000*%
%ADD12C,0.078000*%
%ADD13R,0.069972X0.070000*%
%ADD14R,0.074000X0.074000*%
%ADD15R,0.078000X0.078000*%
%ADD16R,0.074803X0.062992*%
%ADD17C,0.024000*%
%LNCOPPER1*%
G90*
G70*
G54D10*
X496Y1858D03*
X496Y1758D03*
X496Y1658D03*
X496Y1558D03*
X496Y1458D03*
X496Y1358D03*
X496Y1258D03*
X496Y1158D03*
X496Y1058D03*
X496Y958D03*
X496Y858D03*
X496Y758D03*
X496Y658D03*
X496Y558D03*
X496Y458D03*
X1096Y1858D03*
X1096Y1758D03*
X1096Y1658D03*
X1096Y1558D03*
X1096Y1458D03*
X1096Y1358D03*
X1096Y1258D03*
X1096Y1158D03*
X1096Y1058D03*
X1096Y958D03*
X1096Y858D03*
X1096Y758D03*
X1096Y658D03*
X1096Y558D03*
X1096Y458D03*
G54D11*
X596Y158D03*
X696Y158D03*
X796Y158D03*
X896Y158D03*
X996Y158D03*
X1096Y158D03*
X796Y1458D03*
X796Y1358D03*
X796Y1258D03*
X796Y1158D03*
X796Y1058D03*
X796Y958D03*
G54D12*
X196Y758D03*
X196Y658D03*
X196Y558D03*
X196Y1858D03*
X196Y1758D03*
X196Y1558D03*
X196Y1458D03*
X196Y1358D03*
G54D13*
X496Y1858D03*
G54D14*
X796Y1458D03*
G54D15*
X196Y758D03*
X196Y1858D03*
X196Y1558D03*
G54D16*
X1296Y1080D03*
X1296Y958D03*
G54D17*
X810Y1472D02*
X1083Y1745D01*
D02*
X780Y1446D02*
X762Y1432D01*
D02*
X762Y1432D02*
X697Y1357D01*
D02*
X697Y558D02*
X495Y259D01*
D02*
X495Y259D02*
X522Y88D01*
D02*
X697Y1357D02*
X697Y558D01*
D02*
X522Y88D02*
X738Y88D01*
D02*
X738Y88D02*
X783Y143D01*
D02*
X479Y652D02*
X214Y564D01*
D02*
X296Y1258D02*
X486Y1543D01*
D02*
X200Y777D02*
X296Y1258D01*
D02*
X96Y1458D02*
X96Y1858D01*
D02*
X96Y1858D02*
X177Y1858D01*
D02*
X183Y1371D02*
X96Y1458D01*
D02*
X1110Y470D02*
X1260Y600D01*
X1260Y600D02*
X1294Y932D01*
D02*
X1083Y545D02*
X710Y172D01*
D02*
X1291Y1106D02*
X1164Y1728D01*
X1164Y1728D02*
X1113Y1751D01*
G04 End of Copper1*
M02*